<svg width="23" height="23" viewBox="0 0 23 23" fill="none" xmlns="http://www.w3.org/2000/svg">
<g clip-path="url(#clip0_17_392)">
<path d="M15.5687 0.00181899C15.9694 -0.0251341 16.3126 0.278089 16.3351 0.678342C16.3575 1.0786 16.0507 1.42494 15.6504 1.45145L3.32298 2.2861L22.789 21.7525C23.0724 22.0356 23.0702 22.4973 22.784 22.784C22.4974 23.0701 22.0356 23.0723 21.7526 22.7889L2.28619 3.32244L1.45154 15.6504C1.42504 16.0506 1.07869 16.3574 0.678434 16.335C0.27818 16.3125 -0.0250426 15.9693 0.00191054 15.5686L0.944372 1.64506C0.960094 1.2767 1.25343 0.970784 1.62943 0.945628L15.5687 0.00181899Z" fill="#14FF00"/>
</g>
<defs>
<clipPath id="clip0_17_392">
<rect width="23" height="23" fill="white"/>
</clipPath>
</defs>
</svg>
