<svg width="23" height="23" viewBox="0 0 23 23" fill="none" xmlns="http://www.w3.org/2000/svg">
<g clip-path="url(#clip0_17_54)">
<path d="M15.5687 22.9982C15.9694 23.0251 16.3126 22.7215 16.3351 22.3212C16.3575 21.921 16.0507 21.5751 15.6504 21.5486L3.32298 20.7139L22.789 1.24747C23.0724 0.964466 23.0702 0.502669 22.7836 0.216067C22.4974 -0.0700849 22.0356 -0.072331 21.7522 0.211126L2.28619 19.6771L1.45154 7.34966C1.42504 6.94941 1.07869 6.64259 0.678434 6.66505C0.27818 6.68751 -0.0250426 7.03072 0.00191054 7.43097L0.944371 21.355C0.960543 21.7233 1.25343 22.0292 1.62943 22.0544L15.5687 22.9982Z" fill="#FF0000"/>
</g>
<defs>
<clipPath id="clip0_17_54">
<rect width="23" height="23" fill="white"/>
</clipPath>
</defs>
</svg>
