<svg width="26" height="27" viewBox="0 0 26 27" fill="none" xmlns="http://www.w3.org/2000/svg">
<path d="M16.7917 6.89585C17.9834 6.89585 18.9584 5.92085 18.9584 4.72917C18.9584 3.53748 17.9834 2.56248 16.7917 2.56248C15.6 2.56248 14.625 3.53748 14.625 4.72917C14.625 5.92085 15.6 6.89585 16.7917 6.89585Z" fill="#7FC4DC"/>
<path d="M5.41668 13.9375C2.4375 13.9375 0 16.375 0 19.3542C0 22.3334 2.4375 24.7709 5.41668 24.7709C8.39587 24.7709 10.8334 22.3334 10.8334 19.3542C10.8334 16.375 8.39582 13.9375 5.41668 13.9375ZM5.41668 23.1459C3.30418 23.1459 1.625 21.4667 1.625 19.3542C1.625 17.2417 3.30418 15.5625 5.41668 15.5625C7.52918 15.5625 9.20837 17.2417 9.20837 19.3542C9.20837 21.4667 7.52918 23.1459 5.41668 23.1459Z" fill="#7FC4DC"/>
<path d="M20.5293 12.8V10.6333C18.9043 10.6333 17.5501 10.0375 16.5751 9.06249L14.4626 7.00417C14.1376 6.62499 13.5959 6.35417 13.0001 6.35417C12.4043 6.35417 11.8626 6.57086 11.4834 7.00417L8.50425 9.98336C8.12506 10.3625 7.85425 10.9042 7.85425 11.5C7.85425 12.0959 8.12506 12.6375 8.50425 13.0709L11.9167 16.1042V21.5209H14.0834V14.75L11.7001 12.3667L14.2459 9.76667L15.0584 10.5792C16.4126 11.9875 18.3084 12.8 20.5293 12.8Z" fill="#7FC4DC"/>
<path d="M20.5834 13.9375C17.6042 13.9375 15.1667 16.375 15.1667 19.3542C15.1667 22.3334 17.6042 24.7709 20.5834 24.7709C23.5626 24.7709 26.0001 22.3334 26.0001 19.3542C26.0001 16.375 23.5626 13.9375 20.5834 13.9375ZM20.5834 23.1459C18.4709 23.1459 16.7917 21.4667 16.7917 19.3542C16.7917 17.2417 18.4709 15.5625 20.5834 15.5625C22.6959 15.5625 24.3751 17.2417 24.3751 19.3542C24.3751 21.4667 22.6959 23.1459 20.5834 23.1459Z" fill="#7FC4DC"/>
</svg>
