<svg width="26" height="27" viewBox="0 0 26 27" fill="none" xmlns="http://www.w3.org/2000/svg">
<g clip-path="url(#clip0_17_322)">
<path d="M7.85522 18.8119C7.16769 18.4176 6.70312 17.6767 6.70312 16.8287C6.70312 13.3285 9.55064 10.481 13.0508 10.481H15.6666L15.7898 8.44975H0.968018L2.03264 26.0153C2.05704 26.4174 2.39009 26.731 2.79297 26.731H7.46683C6.98758 26.0941 6.70312 25.3026 6.70312 24.4458C6.70312 23.4582 7.33313 22.6149 8.21228 22.2966C7.90065 21.8187 7.71875 21.249 7.71875 20.6373C7.71875 20.0249 7.90105 19.4546 8.21327 18.9763C7.96492 18.9204 7.82706 18.8655 7.85522 18.8119Z" fill="#7FC4DC"/>
<path d="M8.37811 6.92651C8.37871 6.92651 8.3793 6.92632 8.3799 6.92632H15.9961C16.4168 6.92632 16.7578 6.58533 16.7578 6.1646C16.7578 5.74387 16.4168 5.40288 15.9961 5.40288H9.78511L11.8384 2.25444H14.4727C14.8934 2.25444 15.2344 1.91345 15.2344 1.49272C15.2344 1.07199 14.8934 0.731003 14.4727 0.731003H11.4258C11.1683 0.731003 10.9283 0.860931 10.7878 1.07655L7.96631 5.40288H0.761719C0.340988 5.40288 0 5.74387 0 6.1646C0 6.58533 0.340988 6.92632 0.761719 6.92632H8.37534C8.37633 6.92632 8.37732 6.92651 8.37811 6.92651Z" fill="#7FC4DC"/>
<path d="M8.22656 16.8287C8.22656 17.2494 8.56755 17.5904 8.98828 17.5904H25.2383C25.659 17.5904 26 17.2494 26 16.8287C26 14.1686 23.8358 12.0044 21.1758 12.0044H13.0508C10.3907 12.0044 8.22656 14.1686 8.22656 16.8287Z" fill="#7FC4DC"/>
<path d="M10.7656 19.1138C9.92416 19.1138 9.24219 19.7958 9.24219 20.6373C9.24219 21.4787 9.92416 22.1607 10.7656 22.1607H23.4609C24.3024 22.1607 24.9844 21.4787 24.9844 20.6373C24.9844 19.7958 24.3024 19.1138 23.4609 19.1138H10.7656Z" fill="#7FC4DC"/>
<path d="M25.2383 23.6841H8.98828C8.56755 23.6841 8.22656 24.0251 8.22656 24.4458C8.22656 25.7059 9.25171 26.731 10.5117 26.731H23.7148C24.9749 26.731 26 25.7059 26 24.4458C26 24.0251 25.659 23.6841 25.2383 23.6841Z" fill="#7FC4DC"/>
</g>
<defs>
<clipPath id="clip0_17_322">
<rect width="26" height="26" fill="white" transform="translate(0 0.731003)"/>
</clipPath>
</defs>
</svg>
