<svg width="30" height="23" viewBox="0 0 30 23" fill="none" xmlns="http://www.w3.org/2000/svg">
<g clip-path="url(#clip0_17_372)">
<path fill-rule="evenodd" clip-rule="evenodd" d="M0 10.0795H5.89595V20.5702H0V10.0795ZM7.08322 19.6892V10.9201H11.0273C12.699 11.2193 14.3706 12.1264 16.0423 13.1783H19.1054C20.4922 13.2614 21.2188 14.6671 19.87 15.5908C18.7968 16.3792 17.3792 16.334 15.926 16.2034C14.9239 16.1536 14.8812 17.4999 15.926 17.5047C16.2893 17.5332 16.6834 17.4477 17.0277 17.4477C18.8419 17.4453 20.3331 17.0986 21.2473 15.6668L21.7056 14.5959L26.2623 12.3377C28.5418 11.5874 30.1613 13.9714 28.4825 15.6312C25.1819 18.0318 21.7982 20.0074 18.3361 21.6031C15.8215 23.1323 13.3069 23.0801 10.7946 21.6031L7.08322 19.6892Z" fill="#7FC4DC"/>
<path d="M25.6448 7.26096C25.6448 9.81822 23.5186 11.8913 20.8958 11.8913C18.2729 11.8913 16.1467 9.81822 16.1467 7.26096C16.1467 4.7037 18.2729 2.63063 20.8958 2.63063C23.5186 2.63063 25.6448 4.7037 25.6448 7.26096Z" fill="#7FC4DC"/>
<path d="M18.4381 8.55362C18.4381 8.50043 18.4425 8.44391 18.4514 8.38408C18.4625 8.32202 18.478 8.25664 18.4979 8.18794C18.5201 8.11702 18.5467 8.04278 18.5777 7.96521L18.8171 8.05829C18.7949 8.12035 18.7749 8.17908 18.7572 8.23448C18.7417 8.28989 18.7295 8.34197 18.7206 8.39072C18.714 8.43948 18.7107 8.48602 18.7107 8.53035C18.7107 8.63673 18.7384 8.7287 18.7938 8.80627C18.8514 8.88383 18.9301 8.94367 19.0298 8.98578C19.1295 9.02789 19.2459 9.04894 19.3789 9.04894C19.5407 9.04894 19.6736 9.02567 19.7778 8.97913C19.8842 8.93259 19.9662 8.86167 20.0238 8.76638C20.0836 8.67108 20.1235 8.55029 20.1435 8.40402C20.1634 8.25553 20.1701 8.08156 20.1634 7.8821L20.1002 6.17671H20.3762L20.4327 7.95191C20.4371 8.1004 20.4305 8.24335 20.4127 8.38075C20.3972 8.51594 20.3662 8.64005 20.3197 8.75308C20.2731 8.86832 20.2088 8.96805 20.1268 9.05227C20.0448 9.1387 19.9418 9.20519 19.8177 9.25173C19.6936 9.29827 19.544 9.32154 19.3689 9.32154C19.2514 9.32154 19.1373 9.30603 19.0265 9.275C18.9157 9.24397 18.8159 9.19743 18.7273 9.13538C18.6386 9.07332 18.5677 8.99354 18.5145 8.89602C18.4636 8.80073 18.4381 8.68659 18.4381 8.55362ZM21.6172 8.56691C21.4399 8.56691 21.3036 8.54697 21.2083 8.50708C21.1152 8.46718 21.0509 8.40513 21.0155 8.32091C20.98 8.2367 20.9601 8.1281 20.9556 7.99513L20.8892 6.17671H21.1618L21.2282 7.88875C21.2327 7.99734 21.2426 8.08156 21.2582 8.1414C21.2759 8.19902 21.3136 8.23891 21.3712 8.26108C21.431 8.28324 21.5241 8.29432 21.6504 8.29432C21.697 8.29432 21.7302 8.30762 21.7502 8.33421C21.7723 8.35859 21.7834 8.38851 21.7834 8.42397C21.7834 8.45943 21.7679 8.49267 21.7369 8.5237C21.7058 8.55251 21.6659 8.56691 21.6172 8.56691ZM21.6172 8.56691L21.6505 8.29432C21.7812 8.29432 21.8832 8.28989 21.9563 8.28102C22.0295 8.26994 22.0815 8.24445 22.1126 8.20456C22.1436 8.16245 22.1591 8.09707 22.1591 8.00843C22.1591 7.95302 22.1502 7.88764 22.1325 7.81229C22.1148 7.73472 22.0915 7.65272 22.0627 7.56629C22.0339 7.47986 22.0029 7.39453 21.9696 7.31031L22.2389 7.21058C22.2677 7.2815 22.2943 7.3624 22.3187 7.45326C22.3453 7.54413 22.3674 7.63388 22.3852 7.72253C22.4029 7.81118 22.4118 7.88875 22.4118 7.95524C22.4118 8.06605 22.3962 8.16024 22.3652 8.23781C22.3364 8.31537 22.2899 8.37854 22.2256 8.42729C22.1613 8.47605 22.0782 8.51151 21.9763 8.53367C21.8765 8.55583 21.7569 8.56691 21.6172 8.56691ZM22.2322 9.19521C22.1857 9.19521 22.1458 9.17859 22.1126 9.14535C22.0815 9.11432 22.066 9.07665 22.066 9.03232C22.066 8.988 22.0815 8.94921 22.1126 8.91597C22.1458 8.88273 22.1857 8.86611 22.2322 8.86611C22.2766 8.86611 22.3142 8.88273 22.3453 8.91597C22.3785 8.94921 22.3951 8.988 22.3951 9.03232C22.3951 9.07665 22.3785 9.11432 22.3453 9.14535C22.3142 9.17859 22.2766 9.19521 22.2322 9.19521ZM21.7768 9.19521C21.7303 9.19521 21.6904 9.17859 21.6571 9.14535C21.6261 9.11432 21.6106 9.07665 21.6106 9.03232C21.6106 8.988 21.6261 8.94921 21.6571 8.91597C21.6904 8.88273 21.7303 8.86611 21.7768 8.86611C21.8211 8.86611 21.8588 8.88273 21.8898 8.91597C21.9231 8.94921 21.9397 8.988 21.9397 9.03232C21.9397 9.07665 21.9231 9.11432 21.8898 9.14535C21.8588 9.17859 21.8211 9.19521 21.7768 9.19521ZM22.6239 9.31489L22.5275 9.06224C22.7514 8.99132 22.9231 8.906 23.0428 8.80627C23.1647 8.70875 23.2478 8.60681 23.2921 8.50043C23.3387 8.39405 23.3619 8.2921 23.3619 8.19459C23.3619 8.13253 23.3553 8.0727 23.342 8.01507C23.3287 7.95745 23.3054 7.89207 23.2722 7.81894C23.2389 7.7458 23.1924 7.65494 23.1326 7.54634L23.3752 7.42334C23.4595 7.5674 23.5193 7.70369 23.5548 7.83224C23.5924 7.96078 23.6113 8.0738 23.6113 8.17132C23.6113 8.31094 23.588 8.43727 23.5415 8.55029C23.4971 8.66332 23.4373 8.76305 23.3619 8.84948C23.2888 8.93813 23.2079 9.01348 23.1193 9.07554C23.0328 9.13759 22.9453 9.18857 22.8566 9.22846C22.7702 9.26835 22.6926 9.29716 22.6239 9.31489Z" fill="#121212"/>
</g>
<defs>
<clipPath id="clip0_17_372">
<rect width="29.1782" height="22" fill="white" transform="translate(0 0.731018)"/>
</clipPath>
</defs>
</svg>
