<svg width="18" height="22" viewBox="0 0 18 22" fill="none" xmlns="http://www.w3.org/2000/svg">
<path fill-rule="evenodd" clip-rule="evenodd" d="M16.1016 7.63615C16.1016 8.95487 16.4531 9.73215 17.2265 10.6279C17.8127 11.2878 18 12.1348 18 13.0538C18 13.9717 17.6959 14.8431 17.0866 15.5506C16.2889 16.3988 15.164 16.9402 14.0159 17.0343C12.3522 17.175 10.6874 17.2934 9.00053 17.2934C7.3126 17.2934 5.64887 17.2226 3.98515 17.0343C2.83601 16.9402 1.71108 16.3988 0.914469 15.5506C0.305174 14.8431 0 13.9717 0 13.0538C0 12.1348 0.188366 11.2878 0.773458 10.6279C1.57112 9.73215 1.89944 8.95487 1.89944 7.63615V7.18882C1.89944 5.42276 2.34353 4.26794 3.258 3.13746C4.6176 1.48878 6.79696 0.5 8.95317 0.5H9.04788C11.2504 0.5 13.5003 1.53637 14.8367 3.2559C15.7038 4.36312 16.1016 5.46929 16.1016 7.18882V7.63615ZM5.90154 19.4639C5.90154 18.9351 6.39087 18.6929 6.84336 18.5893C7.37268 18.4783 10.5981 18.4783 11.1274 18.5893C11.5799 18.6929 12.0692 18.9351 12.0692 19.4639C12.0429 19.9673 11.7451 20.4135 11.3336 20.6969C10.8001 21.1094 10.174 21.3706 9.51942 21.4647C9.15742 21.5112 8.80174 21.5123 8.45237 21.4647C7.79677 21.3706 7.17064 21.1094 6.63816 20.6959C6.22565 20.4135 5.92784 19.9673 5.90154 19.4639Z" fill="#2F2F2F"/>
</svg>
