<svg width="98" height="96" viewBox="0 0 98 96" fill="none" xmlns="http://www.w3.org/2000/svg">
<g opacity="0.2" filter="url(#filter0_d_61_48)">
<rect x="30" y="14" width="38" height="36" rx="8" fill="white"/>
</g>
<path d="M42 30C40.9 30 40 30.9 40 32C40 33.1 40.9 34 42 34C43.1 34 44 33.1 44 32C44 30.9 43.1 30 42 30Z" stroke="white" stroke-width="1.5"/>
<path d="M56 30C54.9 30 54 30.9 54 32C54 33.1 54.9 34 56 34C57.1 34 58 33.1 58 32C58 30.9 57.1 30 56 30Z" stroke="white" stroke-width="1.5"/>
<path d="M49 30C47.9 30 47 30.9 47 32C47 33.1 47.9 34 49 34C50.1 34 51 33.1 51 32C51 30.9 50.1 30 49 30Z" stroke="white" stroke-width="1.5"/>
<defs>
<filter id="filter0_d_61_48" x="0" y="0" width="98" height="96" filterUnits="userSpaceOnUse" color-interpolation-filters="sRGB">
<feFlood flood-opacity="0" result="BackgroundImageFix"/>
<feColorMatrix in="SourceAlpha" type="matrix" values="0 0 0 0 0 0 0 0 0 0 0 0 0 0 0 0 0 0 127 0" result="hardAlpha"/>
<feOffset dy="16"/>
<feGaussianBlur stdDeviation="15"/>
<feColorMatrix type="matrix" values="0 0 0 0 0.7 0 0 0 0 0.7 0 0 0 0 0.7 0 0 0 0.26 0"/>
<feBlend mode="normal" in2="BackgroundImageFix" result="effect1_dropShadow_61_48"/>
<feBlend mode="normal" in="SourceGraphic" in2="effect1_dropShadow_61_48" result="shape"/>
</filter>
</defs>
</svg>
