<svg width="24" height="25" viewBox="0 0 24 25" fill="none" xmlns="http://www.w3.org/2000/svg">
<g clip-path="url(#clip0_17_395)">
<path d="M23.9136 22.0531L23.3173 7.74045C23.2586 6.33167 22.0636 5.18544 20.6535 5.18544H18.7208V3.62919C18.7208 1.99564 17.3918 0.666687 15.7582 0.666687C14.1247 0.666687 12.7958 1.99569 12.7958 3.62919V5.18544H10.8629C9.68591 5.18544 8.66422 5.86719 8.32935 6.7917H13.1224C14.1653 6.7917 15.1633 7.19469 15.9324 7.92636C16.7016 8.65808 17.1539 9.63467 17.2059 10.6762L17.771 21.9779C17.8207 22.9714 17.5054 23.9159 16.881 24.6667H21.4067C22.1009 24.6667 22.7452 24.3936 23.2208 23.8977C23.6964 23.4018 23.9425 22.7467 23.9136 22.0531ZM17.3145 5.18544H14.202V3.62919C14.202 2.77105 14.9001 2.07294 15.7582 2.07294C16.6164 2.07294 17.3145 2.77109 17.3145 3.62919V5.18544Z" fill="#7FC4DC"/>
<path d="M15.8014 10.7465C15.7312 9.3412 14.5294 8.19797 13.1224 8.19797H3.33168C1.92459 8.19797 0.722806 9.34125 0.652634 10.7464L0.0875092 22.0481C0.0528217 22.7425 0.294134 23.3988 0.767056 23.8959C1.23998 24.393 1.88334 24.6667 2.57859 24.6667H13.8755C14.5707 24.6667 15.2141 24.393 15.6869 23.8959C16.1599 23.3988 16.4012 22.7425 16.3665 22.048L15.8014 10.7465ZM11.1895 13.4198C11.1895 15.0533 9.86053 16.3823 8.22703 16.3823C6.59353 16.3823 5.26457 15.0533 5.26457 13.4198V11.1605C5.26457 10.7722 5.57934 10.4573 5.9677 10.4573C6.35596 10.4573 6.67082 10.7722 6.67082 11.1605V13.4198C6.67082 14.2779 7.36893 14.976 8.22703 14.976C9.08517 14.976 9.78323 14.2779 9.78323 13.4198V11.1605C9.78323 10.7722 10.0981 10.4573 10.4864 10.4573C10.8747 10.4573 11.1895 10.7722 11.1895 11.1605V13.4198Z" fill="#7FC4DC"/>
</g>
<defs>
<clipPath id="clip0_17_395">
<rect width="24" height="24" fill="white" transform="translate(0 0.666687)"/>
</clipPath>
</defs>
</svg>
